<?xml version="1.0" encoding="utf-8"?>
<!-- Svg Vector Icons : http://www.onlinewebfonts.com/icon -->
<!DOCTYPE svg PUBLIC "-//W3C//DTD SVG 1.1//EN" "http://www.w3.org/Graphics/SVG/1.1/DTD/svg11.dtd">
<svg version="1.1" xmlns="http://www.w3.org/2000/svg" xmlns:xlink="http://www.w3.org/1999/xlink" x="0px" y="0px" viewBox="0 0 1000 1000" enable-background="new 0 0 1000 1000" xml:space="preserve">
<metadata> Svg Vector Icons : http://www.onlinewebfonts.com/icon </metadata>
<g><path d="M791.6,278.5c-0.3,1.3-0.7,2.7-1.1,4c-0.1,0.4-0.2,0.8-0.4,1.2c-0.3,1-0.6,1.9-1,2.9c-0.1,0.4-0.3,0.8-0.4,1.2c-0.1,0.4-0.3,0.7-0.4,1.1c-0.3,0.9-0.7,1.8-1.1,2.7c-0.1,0.3-0.3,0.6-0.4,0.9c-0.3,0.7-0.6,1.3-0.9,2c-0.1,0.3-0.3,0.6-0.4,0.9c-0.2,0.5-0.5,1.1-0.8,1.6c-0.1,0.2-0.2,0.5-0.3,0.7c-0.3,0.5-0.5,1.1-0.8,1.6c-0.3,0.5-0.5,1-0.8,1.6c-0.1,0.2-0.3,0.5-0.4,0.7c-0.5,0.9-1,1.7-1.5,2.6c-0.4,0.6-0.7,1.2-1.1,1.8c-0.4,0.6-0.7,1.2-1.1,1.8c-0.4,0.7-0.9,1.4-1.3,2.1c-0.3,0.5-0.7,1-1,1.4c-0.9,1.3-1.8,2.5-2.7,3.7c0,0,0,0,0,0c-0.9,1.2-1.9,2.5-2.9,3.7c-0.1,0.1-0.2,0.2-0.3,0.3c-0.2,0.2-0.4,0.5-0.5,0.7c-0.7,0.8-1.3,1.6-2,2.4c-0.1,0.1-0.1,0.1-0.2,0.2c-0.1,0.2-0.3,0.3-0.4,0.5c-1.5,1.8-3.1,3.5-4.7,5.2c0,0,0,0,0,0c-3.2,3.3-6.5,6.6-10.1,9.8c0,0,0,0,0,0c-1.7,1.5-3.5,3.1-5.3,4.6l-0.5,0.4c-3.8,3.1-7.8,6.2-11.9,9.2c20.6,4.5,40.4,11.1,59.1,19.5v-93H791.6z"/><path d="M10.4,194.8c8.3,80,135,146.1,303,163.5c17.8,1.8,36,3.1,54.6,3.9c11.2,0.4,22.5,0.7,33.9,0.7c3.8,0,7.6,0,11.4-0.1c26.5-0.3,52.3-1.9,77.2-4.4c31-3.2,60.6-8.1,88.3-14.4c2.4-0.5,4.7-1.1,7.1-1.7c18.1-4.3,35.3-9.3,51.5-14.8c3.2-1.1,6.3-2.2,9.3-3.3c6.6-2.4,13.1-4.9,19.4-7.4c4.5-1.8,8.8-3.7,13.1-5.6c4.2-1.9,8.4-3.9,12.4-5.9c1.8-0.9,3.6-1.8,5.4-2.7c6-3.1,11.8-6.2,17.3-9.5c0.1,0,0.1-0.1,0.2-0.1c7.9-4.7,15.4-9.6,22.2-14.7c1.7-1.2,3.3-2.5,4.9-3.7c6.4-5,12.3-10.1,17.6-15.4c1.4-1.3,2.7-2.7,3.9-4.1c5-5.3,9.4-10.8,13.3-16.3c1.9-2.7,3.6-5.4,5.1-8.2c1.7-3,3.3-6.1,4.7-9.1c0.8-1.7,1.5-3.4,2.1-5.2c2.7-7,4.4-14.2,5.2-21.5c0.1-1.3,0.2-2.5,0.3-3.8c0.1-1.5,0.1-3,0.1-4.6C794,89,618.5,10,402,10C185.5,10,10,89,10,186.4c0,1.5,0,3,0.1,4.6C10.2,192.2,10.3,193.5,10.4,194.8z"/><path d="M448.8,851.5c-3.5,0.2-7.1,0.4-10.7,0.5c-0.9,0-1.9,0.1-2.8,0.1c-5,0.2-9.9,0.3-15,0.4c-0.8,0-1.7,0-2.5,0c-5.3,0.1-10.5,0.2-15.8,0.2c-5.3,0-10.6-0.1-15.8-0.2c-0.8,0-1.7,0-2.5,0c-5-0.1-10-0.3-15-0.4c-0.9,0-1.9-0.1-2.8-0.1c-5-0.2-10-0.4-14.9-0.7c-0.6,0-1.2-0.1-1.8-0.1c-4.9-0.3-9.8-0.6-14.7-1c-0.4,0-0.7-0.1-1.1-0.1c-5-0.4-9.9-0.8-14.8-1.3c-0.8-0.1-1.6-0.2-2.4-0.2c-4.8-0.5-9.6-1-14.3-1.6c-0.8-0.1-1.5-0.2-2.3-0.3c-4.9-0.6-9.8-1.2-14.6-1.9c-0.1,0-0.3,0-0.4-0.1c-4.9-0.7-9.7-1.4-14.4-2.2c-0.5-0.1-0.9-0.1-1.4-0.2c-4.7-0.8-9.3-1.6-13.9-2.4c-0.7-0.1-1.4-0.3-2-0.4c-4.6-0.9-9.1-1.7-13.6-2.7c-0.4-0.1-0.9-0.2-1.3-0.3c-9.4-1.9-18.5-4.1-27.5-6.3c-0.4-0.1-0.9-0.2-1.3-0.3c-4.3-1.1-8.6-2.3-12.9-3.4c-0.5-0.1-1-0.3-1.5-0.4c-4.3-1.2-8.6-2.5-12.8-3.7c-0.1,0-0.2-0.1-0.3-0.1c-4.4-1.3-8.7-2.7-12.9-4.1c0,0-0.1,0-0.1,0c-4.1-1.4-8.1-2.8-12.1-4.2c-0.2-0.1-0.5-0.2-0.7-0.2h0C77.4,785.1,24.1,743.4,12.4,696H10v117.6c0,79.1,115.8,146.1,275.2,168.4l0,0c0,0,0,0,0,0c4.1,0.6,8.3,1.1,12.4,1.6c1,0.1,2,0.2,3,0.4c4.1,0.5,8.3,1,12.4,1.4c0.1,0,0.1,0,0.2,0c4.2,0.4,8.5,0.8,12.8,1.2c1,0.1,2.1,0.2,3.1,0.3c4.3,0.4,8.5,0.7,12.8,1c0.1,0,0.1,0,0.2,0c4.3,0.3,8.7,0.6,13.1,0.8c1.1,0.1,2.2,0.1,3.2,0.2c4.4,0.2,8.7,0.4,13.2,0.6c0,0,0.1,0,0.1,0c4.4,0.2,8.9,0.3,13.3,0.3c1.1,0,2.2,0,3.4,0.1c4.5,0.1,9,0.1,13.5,0.1c4.5,0,9,0,13.5-0.1c1.1,0,2.2,0,3.4-0.1c4.5-0.1,8.9-0.2,13.3-0.3c0,0,0.1,0,0.1,0c4.4-0.2,8.8-0.3,13.2-0.6c1.1-0.1,2.2-0.1,3.2-0.2c4.4-0.2,8.7-0.5,13.1-0.8c0,0,0.1,0,0.1,0c4.3-0.3,8.6-0.6,12.8-1c1-0.1,2.1-0.2,3.1-0.3c4.3-0.4,8.6-0.8,12.8-1.2c0.1,0,0.1,0,0.2,0c4.2-0.4,8.3-0.9,12.5-1.4c1-0.1,2-0.2,3-0.4c4.2-0.5,8.3-1.1,12.4-1.6c0,0,0,0,0,0c50.5-7.1,96.6-18.6,136-33.6C573.5,944.2,500.6,907.7,448.8,851.5z"/><path d="M10.2,610.3c0.1,0.9,0.1,1.9,0.2,2.8c0.1,0.5,0.1,1,0.2,1.5c0.1,0.9,0.2,1.8,0.4,2.7c0.1,0.5,0.2,1,0.2,1.5c0.2,1,0.4,1.9,0.6,2.9c0.1,0.4,0.2,0.8,0.2,1.2c0.3,1.3,0.6,2.7,1,4c0,0.1,0.1,0.3,0.1,0.4c0.3,1.2,0.7,2.4,1.1,3.6c0.1,0.4,0.3,0.9,0.4,1.3c0.3,0.9,0.6,1.8,1,2.7c0.2,0.5,0.4,1,0.6,1.4c0.3,0.9,0.7,1.7,1.1,2.6c0.2,0.5,0.4,0.9,0.6,1.4c0.4,1,0.9,1.9,1.4,2.9c0.2,0.3,0.3,0.7,0.5,1c0.7,1.3,1.3,2.6,2.1,3.9c0.1,0.2,0.2,0.4,0.3,0.6c0.6,1.1,1.3,2.2,1.9,3.3c0.2,0.4,0.5,0.8,0.8,1.2c0.6,0.9,1.1,1.8,1.7,2.6c0.3,0.4,0.6,0.9,0.9,1.3c0.6,0.9,1.2,1.7,1.8,2.6c0.3,0.4,0.6,0.8,0.9,1.2c0.7,1,1.5,2,2.3,3c0.2,0.2,0.4,0.5,0.6,0.7c1,1.3,2,2.5,3.1,3.7c0.2,0.2,0.3,0.4,0.5,0.6c0.9,1,1.8,2.1,2.8,3.1c0.3,0.4,0.7,0.7,1,1.1c0.8,0.9,1.6,1.7,2.5,2.6c0.4,0.4,0.7,0.7,1.1,1.1c0.9,0.9,1.8,1.7,2.7,2.6c0.3,0.3,0.7,0.6,1,1c1.1,1.1,2.3,2.2,3.5,3.2c0.1,0.1,0.2,0.2,0.3,0.3c1.3,1.2,2.7,2.4,4.1,3.6c0.2,0.2,0.4,0.3,0.6,0.5c1.2,1,2.4,2,3.6,3c0.4,0.3,0.7,0.6,1.1,0.9c1.1,0.9,2.2,1.7,3.3,2.6c0.4,0.3,0.8,0.6,1.2,0.9c1.2,0.9,2.4,1.8,3.6,2.7c0.3,0.2,0.6,0.5,0.9,0.7c3.2,2.3,6.4,4.5,9.8,6.7c0.2,0.1,0.3,0.2,0.5,0.3c1.5,1,3,1.9,4.6,2.9c0.3,0.2,0.7,0.4,1.1,0.6c1.4,0.9,2.8,1.7,4.3,2.6c0.4,0.2,0.7,0.4,1.1,0.6c1.6,0.9,3.2,1.8,4.8,2.7c0.2,0.1,0.4,0.2,0.6,0.3c3.8,2.1,7.7,4.2,11.6,6.2c0.1,0,0.2,0.1,0.3,0.1c1.8,0.9,3.7,1.9,5.6,2.8c0.3,0.1,0.6,0.3,0.9,0.4c1.8,0.9,3.5,1.7,5.3,2.5c0.3,0.1,0.6,0.3,0.8,0.4c8.4,3.9,17.1,7.6,26.2,11.1c0.2,0.1,0.4,0.2,0.6,0.2c2.1,0.8,4.3,1.6,6.5,2.4c0.1,0,0.3,0.1,0.4,0.2c9.4,3.5,19.3,6.7,29.4,9.8l0.2,0.1c30.8,9.3,64.8,16.7,101,21.7l0,0c0,0,0,0,0,0c1.2,0.2,2.4,0.3,3.6,0.5c2.4,0.3,4.8,0.6,7.1,0.9c0.6,0.1,1.1,0.1,1.6,0.2c1,0.1,2,0.2,3,0.4c0.3,0,0.6,0.1,0.8,0.1c3,0.4,6,0.7,9.1,1c0.8,0.1,1.7,0.2,2.5,0.3c0.1,0,0.1,0,0.2,0c1.3,0.1,2.6,0.2,3.9,0.4c2.3,0.2,4.6,0.4,7,0.7c0.7,0.1,1.3,0.1,2,0.2c1,0.1,2.1,0.2,3.1,0.3c0.2,0,0.5,0,0.7,0.1c3.5,0.3,7,0.6,10.5,0.8c0.5,0,1,0.1,1.5,0.1c0.1,0,0.1,0,0.2,0c1.3,0.1,2.6,0.2,3.9,0.2c2.4,0.2,4.8,0.3,7.2,0.4c0.7,0,1.4,0.1,2,0.1c1.1,0.1,2.2,0.1,3.2,0.2c0.2,0,0.3,0,0.5,0c3.6,0.2,7.2,0.3,10.8,0.5c0.6,0,1.2,0.1,1.9,0.1c0,0,0.1,0,0.1,0c1.3,0,2.5,0.1,3.8,0.1c2.4,0.1,4.8,0.1,7.1,0.2c0.8,0,1.6-0.4,2.4-0.4c1.1,0,2.2-0.4,3.4-0.4h0.2c0.1,0-0.4,0.4-0.4,0.4v0.2c5.1,0.1,8.3,0.2,11.9,0.2c-20.2-40.4-31.5-86.2-31.5-134.3c0-1.2,0-1.8,0-3.7c0,0,0,0,0,0c-0.9,0-1.9,0.1-2.8,0.1c-5-0.2-10-0.4-14.9-0.7c-0.6,0-1.2,0-1.8-0.1c-4.9-0.3-9.8-0.6-14.7-1c-0.4,0-0.7,0-1.1-0.1c-5-0.4-9.9-0.8-14.8-1.3c-0.8-0.1-1.6-0.2-2.4-0.2c-4.8-0.5-9.6-1-14.3-1.6c-0.8-0.1-1.5-0.2-2.3-0.3c-4.9-0.6-9.8-1.2-14.6-1.9c-0.1,0-0.3,0-0.4-0.1c-4.9-0.7-9.7-1.4-14.4-2.2c-0.5-0.1-0.9-0.1-1.4-0.2c-4.7-0.8-9.3-1.6-13.9-2.4c-0.7-0.1-1.4-0.3-2-0.4c-4.6-0.9-9.1-1.7-13.6-2.7c-0.4-0.1-0.9-0.2-1.3-0.3c-9.4-1.9-18.5-4.1-27.5-6.3c-0.4-0.1-0.9-0.2-1.3-0.3c-4.3-1.1-8.6-2.3-12.9-3.4c-0.5-0.1-1-0.3-1.5-0.4c-4.3-1.2-8.6-2.5-12.8-3.7c-0.1,0-0.2-0.1-0.3-0.1c-4.4-1.3-8.7-2.7-12.9-4.1c0,0-0.1,0-0.1,0c-4.1-1.4-8.1-2.3-12.1-3.7c-0.1,0-0.1,0-0.2,0c0,0,0,0,0,0c-0.2,0.1-0.3,0.2-0.5,0.2c0,0,0,0,0,0c-4.7-1.8-9.2-3.6-13.7-5.4c-0.2-0.1-0.4-0.2-0.6-0.3c-4.4-1.8-8.8-3.7-13.1-5.6c-0.2-0.1-0.5-0.2-0.7-0.3c-4.3-1.9-8.5-3.9-12.5-5.9c-0.2-0.1-0.4-0.2-0.6-0.3c-4.3-2.1-8.4-4.2-12.4-6.4c0,0,0,0,0,0c-3.8-2-7.5-4.1-11.1-6.2c-0.2-0.1-0.5-0.3-0.7-0.4c-7.6-4.5-14.8-9.2-21.4-14c0,0,0,0,0,0c-26.4-19.2-44.9-40.6-53.4-63.5c-1.1-3-2.1-6.1-2.9-9.2H10v116.6c0,1.4,0,2.8,0.1,4.1C10.1,609.4,10.2,609.9,10.2,610.3z"/><path d="M10.2,401.6c0.1,0.9,0.1,1.9,0.2,2.8c0.1,0.5,0.1,1,0.2,1.5c0.1,0.9,0.2,1.8,0.4,2.7c0.1,0.5,0.1,1,0.2,1.4c0.2,1,0.4,2,0.6,3c0.1,0.4,0.1,0.7,0.2,1.1c0.6,2.7,1.4,5.5,2.3,8.2c0.1,0.3,0.2,0.5,0.3,0.8c0.4,1.1,0.8,2.2,1.2,3.3c0.1,0.3,0.2,0.5,0.3,0.8c0.5,1.2,1,2.4,1.5,3.5c0.1,0.1,0.1,0.3,0.2,0.4c28.3,63.4,132.2,114.5,267.5,133.5l0,0c0,0,0,0,0,0c4.1,0.6,8.3,1.1,12.4,1.6c1,0.1,2,0.2,3,0.4c4.1,0.5,8.3,1,12.4,1.4c0.1,0,0.1,0,0.2,0c4.2,0.4,8.5,0.8,12.8,1.2c1,0.1,2.1,0.2,3.1,0.3c4.2,0.4,8.5,0.7,12.8,1c0.1,0,0.1,0,0.2,0c4.3,0.3,8.7,0.6,13.1,0.8c1.1,0.1,2.2,0.1,3.2,0.2c0.1,0,0.1,0,0.2,0c6.4,0.3,12.9,0.6,19.3,0.8c13.6-53.3,41.5-100.9,79.2-138.7c-0.8,0.1-1.6,0.1-2.4,0.2c-0.5,0-1.1,0.1-1.6,0.1c-0.1,0-0.1,0-0.2,0c-1.7,0.1-3.3,0.2-5,0.2c-3.3,0.2-6.6,0.4-10,0.5c-0.8,0-1.7,0.1-2.5,0.1c-0.1,0-0.2,0-0.3,0c-0.1,0-0.2,0-0.3,0c-4.9,0.2-9.7,0.3-14.6,0.4c-0.8,0-1.7,0-2.5,0c-5.3,0.1-10.5,0.2-15.8,0.2c-5.3,0-10.6-0.1-15.8-0.2c-0.8,0-1.7,0-2.5,0c-5-0.1-10-0.3-15-0.4c-0.2,0-0.5,0-0.7,0c-0.7,0-1.4-0.1-2.1-0.1c-3.8-0.2-7.5-0.4-11.2-0.6c-1.2-0.1-2.5-0.1-3.7-0.2c-0.1,0-0.2,0-0.4,0c-0.5,0-1-0.1-1.4-0.1c-1.6-0.1-3.3-0.2-4.9-0.3c-3.3-0.2-6.6-0.4-9.8-0.7c-0.3,0-0.6,0-0.8-0.1c-0.1,0-0.2,0-0.3,0c-2.9-0.2-5.7-0.5-8.5-0.8c-2.1-0.2-4.2-0.4-6.3-0.6c-0.3,0-0.6-0.1-0.8-0.1c-0.5-0.1-1.1-0.1-1.6-0.2c-4.8-0.5-9.6-1-14.3-1.6c-0.4,0-0.7-0.1-1.1-0.1c-0.4,0-0.8-0.1-1.2-0.1c-4.9-0.6-9.8-1.2-14.6-1.9c-0.1,0-0.1,0-0.2,0c-0.1,0-0.2,0-0.3,0c-2.3-0.3-4.5-0.7-6.7-1c-1.2-0.2-2.3-0.3-3.5-0.5c-1.4-0.2-2.8-0.4-4.2-0.6c-0.5-0.1-0.9-0.1-1.4-0.2c-1.4-0.2-2.8-0.5-4.2-0.7c-3.2-0.5-6.5-1.1-9.7-1.7c-0.3-0.1-0.7-0.1-1-0.2c-0.3-0.1-0.7-0.1-1-0.2c-4.6-0.9-9.1-1.7-13.6-2.7c-0.4-0.1-0.9-0.2-1.3-0.3c-4.7-1-9.3-2-13.9-3s-9.1-2.1-13.6-3.3c-0.4-0.1-0.9-0.2-1.3-0.3c-4.3-1.1-8.6-2.3-12.9-3.4c-0.5-0.1-1-0.3-1.5-0.4c-4.3-1.2-8.6-2.5-12.8-3.7c-0.1,0-0.2-0.1-0.3-0.1c-4.4-1.3-8.7-2.7-12.9-4.1c0,0-0.1,0-0.1,0c-4.1-1.4-8.1-2.8-12.1-4.2c-0.2-0.1-0.5-0.2-0.7-0.2h0c-2.8-1-5.6-2.1-8.3-3.1c-0.8-0.3-1.7-0.7-2.5-1c-1.9-0.8-3.9-1.5-5.8-2.3c-0.9-0.4-1.8-0.7-2.7-1.1c-2-0.8-4-1.7-5.9-2.5c-0.7-0.3-1.4-0.6-2-0.9c-2.6-1.2-5.2-2.3-7.8-3.5c-0.2-0.1-0.4-0.2-0.6-0.3c-2.4-1.1-4.7-2.2-7-3.3c-0.6-0.3-1.3-0.6-1.9-1c-1.9-0.9-3.8-1.9-5.6-2.8c-0.6-0.3-1.3-0.6-1.9-1c-2.1-1.1-4.2-2.2-6.3-3.4c-0.2-0.1-0.5-0.3-0.7-0.4c-2.4-1.4-4.8-2.7-7.2-4.1c-0.1,0-0.1-0.1-0.2-0.1c-2.2-1.3-4.3-2.6-6.4-3.9c-0.4-0.2-0.8-0.5-1.1-0.7c-1.9-1.2-3.7-2.4-5.5-3.6c-0.3-0.2-0.6-0.4-0.9-0.6c-6.4-4.3-12.4-8.8-17.9-13.4c-0.2-0.2-0.4-0.3-0.6-0.5c-1.7-1.5-3.4-2.9-5.1-4.4c-0.1-0.1-0.2-0.2-0.3-0.2c-3.6-3.2-6.9-6.5-10.1-9.8c-1.7-1.8-3.4-3.6-4.9-5.5c-0.1-0.1-0.2-0.2-0.3-0.3c-0.1-0.1-0.1-0.1-0.2-0.2c-0.7-0.8-1.4-1.6-2.1-2.5c-0.1-0.1-0.1-0.1-0.2-0.2c-0.2-0.2-0.4-0.5-0.6-0.7c-1-1.2-2-2.5-2.9-3.7c0,0,0,0,0,0c-0.9-1.3-1.8-2.5-2.7-3.8c-0.3-0.5-0.6-0.9-1-1.4c-0.5-0.7-0.9-1.4-1.3-2.1c-0.4-0.6-0.7-1.2-1.1-1.7c-0.4-0.6-0.8-1.2-1.1-1.9c-0.5-0.9-1-1.7-1.5-2.6c-0.1-0.2-0.3-0.5-0.4-0.7c-0.3-0.5-0.6-1.1-0.8-1.6c-0.1-0.2-0.2-0.4-0.3-0.6c-0.3-0.6-0.6-1.1-0.8-1.7c-0.3-0.5-0.5-1-0.7-1.6c-0.1-0.2-0.2-0.3-0.2-0.5c-0.3-0.8-0.7-1.5-1-2.3c-0.1-0.3-0.3-0.7-0.4-1c-0.4-0.9-0.7-1.8-1.1-2.7c-0.1-0.4-0.3-0.7-0.4-1.1c-0.1-0.4-0.3-0.8-0.4-1.2c-0.3-1-0.7-1.9-1-2.9c-0.1-0.4-0.3-0.8-0.4-1.2c-0.4-1.3-0.8-2.6-1.1-4H10v117.6c0,1.4,0,2.8,0.1,4.1C10.1,400.7,10.2,401.1,10.2,401.6z"/><path d="M986.4,914.4L878.9,806.8c0,0,0,0,0,0c34-44.3,54.3-99.7,54.3-159.9c0-145.1-117.6-262.6-262.6-262.6c-145.1,0-262.6,117.6-262.6,262.6s117.6,262.6,262.6,262.6c48,0,93-12.9,131.7-35.4l112.2,112.2c5.5,5.5,15.3,4.5,21.9-2.1l48-48C991,929.7,991.9,919.8,986.4,914.4z M469.1,647c0-111.3,90.2-201.4,201.4-201.4c111.2,0,201.4,90.2,201.4,201.4s-90.2,201.4-201.4,201.4C559.2,848.4,469.1,758.2,469.1,647z M874.9,811.8C874.9,811.9,874.9,811.9,874.9,811.8C874.9,811.9,874.9,811.9,874.9,811.8z M807.8,870.9c0,0-0.1,0.1-0.1,0.1C807.7,870.9,807.8,870.9,807.8,870.9z M813.1,867.5c0.1-0.1,0.2-0.1,0.2-0.2C813.3,867.4,813.2,867.5,813.1,867.5z M818.5,864c0.1-0.1,0.2-0.1,0.3-0.2C818.7,863.9,818.6,863.9,818.5,864z M823.7,860.3c0.1-0.1,0.2-0.1,0.3-0.2C823.9,860.2,823.8,860.2,823.7,860.3z M828.9,856.5c0.1-0.1,0.2-0.2,0.3-0.2C829.1,856.3,829,856.4,828.9,856.5z M834,852.5c0.1-0.1,0.2-0.2,0.3-0.2C834.1,852.4,834,852.5,834,852.5z M838.9,848.5c0.1-0.1,0.2-0.1,0.3-0.2C839.1,848.3,839,848.4,838.9,848.5z M843.8,844.3c0.1-0.1,0.1-0.1,0.2-0.2C843.9,844.2,843.9,844.2,843.8,844.3z M848.6,840c0.1,0,0.1-0.1,0.2-0.2C848.7,839.9,848.6,839.9,848.6,840z M853.3,835.6c0,0,0.1-0.1,0.1-0.1C853.3,835.5,853.3,835.5,853.3,835.6z M857.8,831.1C857.8,831,857.9,831,857.8,831.1C857.9,831,857.8,831,857.8,831.1z M870.8,816.8C870.8,816.8,870.8,816.8,870.8,816.8C870.8,816.8,870.8,816.8,870.8,816.8z M866.6,821.6C866.6,821.6,866.6,821.7,866.6,821.6C866.6,821.7,866.6,821.6,866.6,821.6z M862.3,826.3C862.3,826.4,862.3,826.4,862.3,826.3C862.3,826.4,862.3,826.4,862.3,826.3z"/></g>
</svg>