<?xml version="1.0" encoding="utf-8"?>
<!-- Svg Vector Icons : http://www.onlinewebfonts.com/icon -->
<!DOCTYPE svg PUBLIC "-//W3C//DTD SVG 1.1//EN" "http://www.w3.org/Graphics/SVG/1.1/DTD/svg11.dtd">
<svg version="1.1" xmlns="http://www.w3.org/2000/svg" xmlns:xlink="http://www.w3.org/1999/xlink" x="0px" y="0px" viewBox="0 0 1000 1000" enable-background="new 0 0 1000 1000" xml:space="preserve">
<metadata> Svg Vector Icons : http://www.onlinewebfonts.com/icon </metadata>
<g><path d="M10,102.4h62v795.2H10V102.4z"/><path d="M57.1,836.9H990v60.6H57.1V836.9L57.1,836.9z"/><path d="M255,665c0,38.5-31.2,69.7-69.7,69.7c-38.5,0-70.7-31.2-70.7-69.7c0-38.5,32.2-69.7,70.7-69.7C223.8,595.4,255,626.6,255,665z"/><path d="M509.3,368.2c0,38.5-31.2,69.7-69.7,69.7s-70.7-31.2-70.7-69.7c0-38.5,32.2-69.7,70.7-69.7S509.3,329.7,509.3,368.2z"/><path d="M687.4,623c0,38.5-31.2,69.7-69.7,69.7c-38.5,0-70.7-31.2-70.7-69.7c0-38.5,32.2-69.7,70.7-69.7C656.2,553.3,687.4,584.5,687.4,623z"/><path d="M406,362.4l43.6,39.2L226.5,649.8l-43.6-39.2L406,362.4L406,362.4z"/><path d="M417.7,390.1l50-34.9l194.5,278.4l-50,34.9L417.7,390.1L417.7,390.1z"/><path d="M921.6,247.8l44.2,40.8L657.6,622l-44.2-40.8L921.6,247.8L921.6,247.8z"/></g>
</svg>