<?xml version="1.0" encoding="utf-8"?>
<!-- Svg Vector Icons : http://www.onlinewebfonts.com/icon -->
<!DOCTYPE svg PUBLIC "-//W3C//DTD SVG 1.1//EN" "http://www.w3.org/Graphics/SVG/1.1/DTD/svg11.dtd">
<svg version="1.1" xmlns="http://www.w3.org/2000/svg" xmlns:xlink="http://www.w3.org/1999/xlink" x="0px" y="0px" viewBox="0 0 1000 1000" enable-background="new 0 0 1000 1000" xml:space="preserve">
<metadata> Svg Vector Icons : http://www.onlinewebfonts.com/icon </metadata>
<g><path d="M473.1,201.3h-88.2v368.2h88.2c64.3,0,111.3-15,140.9-44.4c28.9-30.1,43.3-76.6,43.3-139.7c0-64.5-14.4-111.7-43.3-140.5C584.4,215.6,537.4,201.3,473.1,201.3z"/><path d="M788.5,10h-577C147,10,94.3,62.7,94.3,127.2v745.5C94.3,937.3,147,990,211.5,990h577c46.1,0,86.1-27,105.3-65.8H219.4c-24.1,0-43.9-19.7-43.9-43.9v-55.5c0-24.1,19.7-43.9,43.9-43.9h456.7c0.8,0,1.8,0,2.6,0h68.3c87.4,0,158.8-71.4,158.8-158.8v-95.4v-56.4V127.2C905.7,62.7,852.9,10,788.5,10z M679.1,572.4c-43.3,45.8-106.2,68.8-190,68.8H300.4V129.6h188.7c83.8,0,146.7,23,190,68.8c41.1,42.9,62.2,105.3,62.2,187C741.3,466.4,720.2,528.8,679.1,572.4z"/></g>
</svg>